<svg xmlns="http://www.w3.org/2000/svg" width="146" height="42" viewBox="0 0 146 42" fill="none">
<path d="M3.95997 41.1951C2.85997 41.1951 1.92497 40.8101 1.15497 40.0401C0.384966 39.2701 -3.40305e-05 38.3351 -3.40305e-05 37.2351V6.60007C-3.40305e-05 5.53673 0.384966 4.62007 1.15497 3.85007C1.92497 3.08007 2.85997 2.69507 3.95997 2.69507H16.445C17.545 2.69507 18.48 3.08007 19.25 3.85007C20.02 4.62007 20.405 5.53673 20.405 6.60007V15.1801L15.29 14.0251V9.73507C15.29 9.18507 15.0883 8.72673 14.685 8.36007C14.3183 7.95673 13.86 7.75507 13.31 7.75507H7.09497C6.54497 7.75507 6.0683 7.95673 5.66497 8.36007C5.2983 8.72673 5.11497 9.18507 5.11497 9.73507V34.1001C5.11497 34.6501 5.2983 35.1267 5.66497 35.5301C6.0683 35.8967 6.54497 36.0801 7.09497 36.0801H13.31C13.86 36.0801 14.3183 35.8967 14.685 35.5301C15.0883 35.1267 15.29 34.6501 15.29 34.1001V28.7651H10.23L11.385 23.6501H20.405V37.2351C20.405 38.3351 20.02 39.2701 19.25 40.0401C18.48 40.8101 17.545 41.1951 16.445 41.1951H3.95997ZM32.7864 41.1951C31.6864 41.1951 30.7331 40.8101 29.9264 40.0401C29.1564 39.2701 28.7714 38.3167 28.7714 37.1801V28.8751C28.7714 27.7751 29.1564 26.8401 29.9264 26.0701C30.7331 25.2634 31.6864 24.8601 32.7864 24.8601H37.0764C37.6631 24.8601 38.1397 24.6767 38.5064 24.3101C38.9097 23.9067 39.1114 23.4301 39.1114 22.8801V20.8451C39.1114 20.2951 38.9097 19.8367 38.5064 19.4701C38.1397 19.0667 37.6631 18.8651 37.0764 18.8651H31.1364L32.2914 13.6951H40.2664C41.3664 13.6951 42.3014 14.0984 43.0714 14.9051C43.8781 15.6751 44.2814 16.6101 44.2814 17.7101V41.1951H32.7864ZM35.9214 36.0251H39.1114V30.0301H35.9214C35.3714 30.0301 34.8947 30.2317 34.4914 30.6351C34.1247 31.0017 33.9414 31.4601 33.9414 32.0101V34.0451C33.9414 34.5951 34.1247 35.0717 34.4914 35.4751C34.8947 35.8417 35.3714 36.0251 35.9214 36.0251ZM50.016 41.1951V13.6951H61.511C62.5744 13.6951 63.5094 14.0801 64.316 14.8501C65.1227 15.6201 65.526 16.5551 65.526 17.6551V41.1951H60.356V20.8451C60.356 20.2584 60.1544 19.7817 59.751 19.4151C59.3477 19.0484 58.8894 18.8651 58.376 18.8651H55.186V41.1951H50.016ZM75.2395 41.1951C74.1395 41.1951 73.1862 40.8101 72.3795 40.0401C71.6095 39.2701 71.2245 38.3167 71.2245 37.1801V28.8751C71.2245 27.7751 71.6095 26.8401 72.3795 26.0701C73.1862 25.2634 74.1395 24.8601 75.2395 24.8601H79.5295C80.1162 24.8601 80.5929 24.6767 80.9595 24.3101C81.3629 23.9067 81.5645 23.4301 81.5645 22.8801V20.8451C81.5645 20.2951 81.3629 19.8367 80.9595 19.4701C80.5929 19.0667 80.1162 18.8651 79.5295 18.8651H73.5895L74.7445 13.6951H82.7195C83.8195 13.6951 84.7545 14.0984 85.5245 14.9051C86.3312 15.6751 86.7345 16.6101 86.7345 17.7101V41.1951H75.2395ZM78.3745 36.0251H81.5645V30.0301H78.3745C77.8245 30.0301 77.3479 30.2317 76.9445 30.6351C76.5779 31.0017 76.3945 31.4601 76.3945 32.0101V34.0451C76.3945 34.5951 76.5779 35.0717 76.9445 35.4751C77.3479 35.8417 77.8245 36.0251 78.3745 36.0251ZM96.7871 41.1951C95.6871 41.1951 94.7521 40.8101 93.9821 40.0401C93.2121 39.2334 92.8271 38.2801 92.8271 37.1801V32.6151H97.9421V34.0451C97.9421 34.5951 98.1437 35.0717 98.5471 35.4751C98.9504 35.8417 99.4271 36.0251 99.9771 36.0251H101.132C101.682 36.0251 102.14 35.8417 102.507 35.4751C102.91 35.0717 103.112 34.5951 103.112 34.0451V32.0101C103.112 31.4601 102.91 31.0017 102.507 30.6351C102.14 30.2317 101.682 30.0301 101.132 30.0301H96.7871C95.6871 30.0301 94.7521 29.6451 93.9821 28.8751C93.2121 28.0684 92.8271 27.1151 92.8271 26.0151V17.7101C92.8271 16.6101 93.2121 15.6751 93.9821 14.9051C94.7521 14.0984 95.6871 13.6951 96.7871 13.6951H104.322C105.422 13.6951 106.357 14.0984 107.127 14.9051C107.897 15.6751 108.282 16.6101 108.282 17.7101V22.2751H103.112V20.8451C103.112 20.2951 102.91 19.8367 102.507 19.4701C102.14 19.0667 101.682 18.8651 101.132 18.8651H99.9771C99.4271 18.8651 98.9504 19.0667 98.5471 19.4701C98.1437 19.8367 97.9421 20.2951 97.9421 20.8451V22.8801C97.9421 23.4301 98.1437 23.9067 98.5471 24.3101C98.9504 24.6767 99.4271 24.8601 99.9771 24.8601H104.322C105.422 24.8601 106.357 25.2634 107.127 26.0701C107.897 26.8401 108.282 27.7751 108.282 28.8751V37.4001C108.245 38.4267 107.842 39.3251 107.072 40.0951C106.302 40.8284 105.385 41.1951 104.322 41.1951H96.7871ZM114.376 41.1951V1.15507L119.546 6.76513e-05V13.6951H126.091L124.881 18.8651H119.546V41.1951H114.376ZM134.515 41.1951C133.415 41.1951 132.462 40.8101 131.655 40.0401C130.885 39.2334 130.5 38.2801 130.5 37.1801V17.6551C130.5 16.5551 130.885 15.6201 131.655 14.8501C132.462 14.0801 133.415 13.6951 134.515 13.6951H141.995C143.132 13.6951 144.085 14.0801 144.855 14.8501C145.625 15.6201 146.01 16.5551 146.01 17.6551V26.0151C146.01 27.1151 145.625 28.0684 144.855 28.8751C144.085 29.6451 143.132 30.0301 141.995 30.0301H135.67V34.0451C135.67 34.5951 135.853 35.0717 136.22 35.4751C136.623 35.8417 137.118 36.0251 137.705 36.0251H144.855L146.01 41.1951H134.515ZM135.67 24.8601H138.86C139.41 24.8601 139.868 24.6767 140.235 24.3101C140.638 23.9067 140.84 23.4301 140.84 22.8801V20.8451C140.84 20.2951 140.638 19.8367 140.235 19.4701C139.868 19.0667 139.41 18.8651 138.86 18.8651H137.705C137.118 18.8651 136.623 19.0667 136.22 19.4701C135.853 19.8367 135.67 20.2951 135.67 20.8451V24.8601Z" fill="white"/>
</svg>