<svg width="322" height="87" viewBox="0 0 322 87" fill="none" xmlns="http://www.w3.org/2000/svg">
<rect x="5" y="5" width="312" height="77" rx="5" fill="#006CFC" stroke="#001997" stroke-width="10"/>
<path d="M94.0883 58V26.5H110.828V30.64H98.2733V38.47H106.643L105.698 42.655H98.2733V53.815H110.828V58H94.0883ZM118.888 58V35.5H136.753C137.653 35.5 138.418 35.83 139.048 36.49C139.678 37.12 139.993 37.885 139.993 38.785V58H135.808V41.35C135.808 40.9 135.643 40.525 135.313 40.225C134.983 39.895 134.593 39.73 134.143 39.73H131.578V58H127.348V41.35C127.348 40.9 127.183 40.525 126.853 40.225C126.523 39.895 126.133 39.73 125.683 39.73H123.118V58H118.888ZM145.543 69.25V35.5H154.948C155.878 35.5 156.658 35.815 157.288 36.445C157.918 37.075 158.233 37.855 158.233 38.785V54.715C158.233 55.645 157.918 56.425 157.288 57.055C156.658 57.685 155.878 58 154.948 58H149.773V69.25H145.543ZM149.773 53.77H152.383C152.803 53.77 153.178 53.605 153.508 53.275C153.838 52.945 154.003 52.57 154.003 52.15V41.395C154.003 40.885 153.838 40.48 153.508 40.18C153.178 39.88 152.803 39.73 152.383 39.73H149.773V53.77ZM166.502 58C165.602 58 164.822 57.685 164.162 57.055C163.532 56.395 163.217 55.615 163.217 54.715V38.74C163.217 37.84 163.532 37.075 164.162 36.445C164.822 35.815 165.602 35.5 166.502 35.5H172.622C173.552 35.5 174.332 35.815 174.962 36.445C175.592 37.075 175.907 37.84 175.907 38.74V45.58C175.907 46.48 175.592 47.26 174.962 47.92C174.332 48.55 173.552 48.865 172.622 48.865H167.447V52.15C167.447 52.6 167.597 52.99 167.897 53.32C168.227 53.62 168.632 53.77 169.112 53.77H174.962L175.907 58H166.502ZM167.447 44.635H170.057C170.507 44.635 170.882 44.485 171.182 44.185C171.512 43.855 171.677 43.465 171.677 43.015V41.35C171.677 40.9 171.512 40.525 171.182 40.225C170.882 39.895 170.507 39.73 170.057 39.73H169.112C168.632 39.73 168.227 39.895 167.897 40.225C167.597 40.525 167.447 40.9 167.447 41.35V44.635ZM181.771 58L188.611 39.73H181.771V35.5H194.461L187.531 53.77H194.461V58H181.771ZM201.808 58C200.908 58 200.128 57.685 199.468 57.055C198.838 56.425 198.523 55.645 198.523 54.715V47.92C198.523 47.02 198.838 46.255 199.468 45.625C200.128 44.965 200.908 44.635 201.808 44.635H205.318C205.798 44.635 206.188 44.485 206.488 44.185C206.818 43.855 206.983 43.465 206.983 43.015V41.35C206.983 40.9 206.818 40.525 206.488 40.225C206.188 39.895 205.798 39.73 205.318 39.73H200.458L201.403 35.5H207.928C208.828 35.5 209.593 35.83 210.223 36.49C210.883 37.12 211.213 37.885 211.213 38.785V58H201.808ZM204.373 53.77H206.983V48.865H204.373C203.923 48.865 203.533 49.03 203.203 49.36C202.903 49.66 202.753 50.035 202.753 50.485V52.15C202.753 52.6 202.903 52.99 203.203 53.32C203.533 53.62 203.923 53.77 204.373 53.77ZM216.198 58V35.5H225.603C226.503 35.5 227.268 35.83 227.898 36.49C228.558 37.12 228.888 37.885 228.888 38.785V43.69L224.658 42.745V41.395C224.658 40.945 224.493 40.555 224.163 40.225C223.863 39.895 223.488 39.73 223.038 39.73H220.428V58H216.198Z" fill="#D8FCFC"/>
</svg>
