<svg width="57" height="101" viewBox="0 0 57 101" fill="none" xmlns="http://www.w3.org/2000/svg">
<path d="M44.2222 124.952V56.8755C49.7385 54.8116 53.6618 49.5449 53.6618 43.3701V18.8099H2.62798V43.3701C2.62798 49.5449 6.55134 54.8116 12.0677 56.8755V124.952H44.2222Z" fill="#FFCAB9"/>
<path d="M8.10367 24.4585C5.07919 24.4585 2.6276 22.0357 2.6276 19.0467V13.8862C2.6276 10.8972 5.07919 8.47443 8.10367 8.47443C11.1282 8.47443 13.5797 10.8972 13.5797 13.8862V19.0467C13.5797 22.0357 11.1282 24.4585 8.10367 24.4585Z" fill="#FABBA7"/>
<path d="M19.0558 24.4585C16.0313 24.4585 13.5798 22.0357 13.5798 19.0468V8.00314C13.5798 5.01417 16.0313 2.59137 19.0558 2.59137C22.0803 2.59137 24.5319 5.01417 24.5319 8.00314V19.0468C24.5319 22.0357 22.0803 24.4585 19.0558 24.4585Z" fill="#FABBA7"/>
<path d="M30.0079 24.4585C26.9834 24.4585 24.5318 22.0357 24.5318 19.0468V8.00314C24.5318 5.01417 26.9834 2.59137 30.0079 2.59137C33.0323 2.59137 35.4839 5.01417 35.4839 8.00314V19.0468C35.4839 22.0357 33.032 24.4585 30.0079 24.4585Z" fill="#FABBA7"/>
<path d="M40.96 24.4585C37.9355 24.4585 35.4839 22.0357 35.4839 19.0468V8.00314C35.4839 5.01417 37.9355 2.59137 40.96 2.59137C43.9845 2.59137 46.4361 5.01417 46.4361 8.00314V19.0468C46.4361 22.0357 43.9842 24.4585 40.96 24.4585Z" fill="#FABBA7"/>
<path d="M53.6624 43.3702V19.0467C53.6624 16.0577 51.2108 13.6349 48.1863 13.6349H30.0079C26.9834 13.6349 24.5318 16.0577 24.5318 19.0467C24.5318 22.0356 26.9834 24.4584 30.0079 24.4584H42.7102V32.5591C37.6372 33.4876 32.6181 38.2173 32.6181 44.8593" fill="#FFCAB9"/>
<path d="M49.062 11.0868V8.00302C49.0851 1.05925 40.5688 -2.57822 35.4839 2.10783C32.527 -0.686982 27.488 -0.68629 24.5322 2.10783C19.9428 -2.12903 12.2736 0.394123 11.1075 6.45196C5.96588 4.30395 -0.116318 8.338 0.00169076 13.8864V43.37C0.00169076 49.7922 3.72826 55.6854 9.44137 58.5611L10.3711 123.892C10.3711 125.326 11.5466 126.488 12.9974 126.488C14.4482 126.488 15.6237 125.326 15.6237 123.892L14.694 56.8755C14.694 55.7964 14.0185 54.8302 12.9974 54.4482C8.36599 52.7154 5.25432 48.2633 5.25432 43.37V26.5413C8.0081 27.6314 11.5067 26.9161 13.5798 24.9421C16.5366 27.7369 21.576 27.7366 24.5318 24.9421C25.9749 26.2523 27.8981 27.0541 30.0079 27.0541H40.0835V30.5916C34.8708 32.4738 29.9918 37.6544 29.9918 44.8594C29.9918 46.2928 31.1673 47.4549 32.6181 47.4549C34.0689 47.4549 35.2444 46.2928 35.2444 44.8594C35.2444 39.4723 39.3373 35.8161 43.1885 35.1112C44.4334 34.8831 45.3365 33.8103 45.3365 32.559V24.4583C45.3365 23.0249 44.1609 21.8628 42.7101 21.8628H30.0079C28.4366 21.8628 27.1581 20.5994 27.1581 19.0466C27.1581 17.4938 28.4363 16.2303 30.0079 16.2303H48.1862C49.7574 16.2303 51.0359 17.4935 51.0359 19.0466V43.37C51.0359 48.2633 47.9239 52.7151 43.2928 54.4482C42.2717 54.8302 41.5962 55.7964 41.5962 56.8755L42.526 123.892C42.526 125.326 43.7015 126.488 45.1523 126.488C46.6031 126.488 47.7786 125.326 47.7786 123.892L46.8489 58.5611C52.562 55.6854 56.2886 49.7922 56.2886 43.37V19.0466C56.2886 14.9239 53.1191 11.5201 49.062 11.0868ZM40.9596 5.18675C42.5309 5.18675 43.8093 6.44988 43.8093 8.00302V11.0394H38.1102V8.00302C38.1102 6.45023 39.3884 5.18675 40.9596 5.18675ZM8.1037 21.8628C6.53246 21.8628 5.25397 20.5997 5.25397 19.0466V18.8099V13.8861C5.39755 10.1541 10.8109 10.1573 10.9531 13.8861V19.0466C10.9534 20.5997 9.67529 21.8628 8.1037 21.8628ZM19.0561 21.8628C17.4849 21.8628 16.2061 20.5997 16.2061 19.0466V13.8861V8.00302C16.3496 4.27141 21.7634 4.27384 21.9055 8.00302V19.0466C21.9055 20.5997 20.6274 21.8628 19.0561 21.8628ZM27.1581 11.5522V8.00335C27.3017 4.27141 32.7151 4.27452 32.8573 8.00335V11.0397H30.0075C29.0053 11.0394 28.0451 11.2214 27.1581 11.5522Z" fill="black"/>
</svg>
