<svg width="56" height="101" viewBox="0 0 56 101" fill="none" xmlns="http://www.w3.org/2000/svg">
<path d="M43.4554 125.408V80.3017C48.876 78.2411 52.7313 72.9828 52.7313 66.8178V42.297H2.58239V66.8178C2.58239 72.9828 6.43769 78.2411 11.8583 80.3017V125.408H43.4554Z" fill="#FFCAB9"/>
<path d="M31.5486 45.0562C28.6261 45.5973 25.8199 43.6572 25.2807 40.7228L19.4496 8.97543C18.9107 6.04099 20.8428 3.22334 23.7653 2.68192C26.6878 2.14085 29.4939 4.0809 30.0331 7.01534L35.8643 38.7627C36.4035 41.6975 34.471 44.5151 31.5486 45.0562Z" fill="#FABBA7"/>
<path d="M37.7909 44.5953C34.9317 43.7806 33.2721 40.7929 34.0832 37.9224L42.8606 6.86608C43.672 3.99556 46.6474 2.32882 49.5062 3.14319C52.365 3.95791 54.025 6.94555 53.2139 9.81606L44.4366 40.8724C43.6255 43.7433 40.65 45.41 37.7909 44.5953Z" fill="#FABBA7"/>
<path d="M7.96348 47.9365C4.99146 47.9365 2.58239 45.5176 2.58239 42.5334V37.3811C2.58239 34.397 4.99146 31.978 7.96348 31.978C10.9355 31.978 13.3446 34.397 13.3446 37.3811V42.5334C13.3446 45.5176 10.9355 47.9365 7.96348 47.9365Z" fill="#FABBA7"/>
<path d="M18.7256 47.9365C15.7536 47.9365 13.3446 45.5176 13.3446 42.5334V31.5074C13.3446 28.5232 15.7536 26.1043 18.7256 26.1043C21.6977 26.1043 24.1067 28.5232 24.1067 31.5074V42.5334C24.1067 45.5176 21.6977 47.9365 18.7256 47.9365Z" fill="#FABBA7"/>
<path d="M52.7318 66.818V42.5334C52.7318 39.5492 50.3228 37.1302 47.3508 37.1302H29.4877C26.5157 37.1302 24.1066 39.5492 24.1066 42.5334C24.1066 45.5176 26.5157 47.9365 29.4877 47.9365H41.9697V56.0242C36.9847 56.9512 32.0526 61.6733 32.0526 68.3048" fill="#FFCAB9"/>
<path d="M50.2108 0.650582C46.0599 -0.532444 41.5429 2.03504 40.3781 6.1587L35.6034 23.0531L32.5715 6.54568C31.7753 2.21056 27.6127 -0.666848 23.2976 0.133698C18.9802 0.933208 16.1159 5.11042 16.9118 9.44554L19.5026 23.552C15.5605 23.1668 11.6832 26.0469 10.9152 29.9592C5.86272 27.8146 -0.114301 31.8418 0.00166134 37.3817V66.8182C0.00166134 73.2301 3.66357 79.1138 9.27758 81.985V125.409C9.27758 126.84 10.4327 128 11.8583 128C13.284 128 14.4391 126.84 14.4391 125.409V80.3017C14.4391 79.2244 13.7753 78.2597 12.7719 77.8783C8.22086 76.1483 5.16318 71.7033 5.16318 66.8178V50.016C7.86919 51.1047 11.3074 50.3898 13.3445 48.4194C16.2498 51.2097 21.2017 51.209 24.1063 48.4194C25.5243 49.7275 27.4145 50.528 29.4873 50.528H39.3885V54.0598C34.2659 55.9391 29.4715 61.1114 29.4715 68.3049C29.4715 69.736 30.6266 70.8962 32.0523 70.8962C33.4779 70.8962 34.633 69.736 34.633 68.3049C34.633 62.9263 38.6549 59.276 42.4396 58.5722C43.6629 58.3449 44.5504 57.2734 44.5504 56.0241V47.9364C44.5504 46.5053 43.3952 45.3451 41.9696 45.3451H29.4877C25.7834 45.2068 25.7741 39.8635 29.4877 39.7215C35.442 39.7215 41.3963 39.7222 47.3506 39.7215C48.8946 39.7215 50.1509 40.9826 50.1509 42.5333V66.8178C50.1509 71.7033 47.0929 76.1479 42.5422 77.8783C41.5388 78.2597 40.875 79.2244 40.875 80.3017V94.0243C40.875 95.4554 42.0302 96.6156 43.4558 96.6156C44.8814 96.6156 46.0365 95.4554 46.0365 94.0243V81.9846C51.6505 79.1135 55.3125 73.2298 55.3125 66.8178V42.5333C55.3125 38.646 52.5345 35.3999 48.8678 34.6864L55.6968 10.5235C56.895 6.2824 54.4343 1.8533 50.2108 0.650582ZM7.96347 45.3451C6.41949 45.3451 5.16318 44.0839 5.16318 42.5333V42.297V37.381C5.30426 33.6551 10.6241 33.6582 10.7638 37.381V42.5333C10.7641 44.0839 9.50745 45.3451 7.96347 45.3451ZM21.5259 42.5333C21.3865 46.2555 16.0667 46.26 15.9256 42.5333V37.381V31.5074C16.0646 27.7855 21.3848 27.7807 21.5259 31.5074V42.5333ZM26.6874 35.0509V31.5077C26.6874 29.9167 26.2201 28.4341 25.419 27.1871L21.988 8.50575C21.7079 6.98101 22.7151 5.51191 24.2336 5.23067C25.7521 4.94977 27.2152 5.96107 27.4953 7.48581L32.4642 34.5392H29.4877C28.5025 34.5389 27.559 34.7206 26.6874 35.0509ZM50.7314 9.10867L43.5442 34.5389H37.722L45.3435 7.57322C45.9636 5.96833 47.1163 5.32257 48.8021 5.63629C50.2872 6.0592 51.153 7.6171 50.7314 9.10867Z" fill="black"/>
</svg>
