<svg width="156" height="42" viewBox="0 0 156 42" fill="none" xmlns="http://www.w3.org/2000/svg">
<path d="M-3.40305e-05 41.25V2.75H16.5C17.5633 2.75 18.48 3.135 19.25 3.905C20.0566 4.675 20.46 5.61 20.46 6.71V18.535C20.46 19.635 20.0566 20.57 19.25 21.34C18.48 22.11 17.5633 22.495 16.5 22.495H5.11497V41.25H-3.40305e-05ZM5.11497 17.38H13.365C13.915 17.38 14.3733 17.1967 14.74 16.83C15.1433 16.4267 15.345 15.95 15.345 15.4V9.79C15.345 9.27667 15.1433 8.83667 14.74 8.47C14.3733 8.06666 13.915 7.865 13.365 7.865H5.11497V17.38ZM31.1751 41.25C30.0751 41.25 29.1217 40.865 28.3151 40.095C27.5451 39.2883 27.1601 38.335 27.1601 37.235V17.71C27.1601 16.61 27.5451 15.675 28.3151 14.905C29.1217 14.135 30.0751 13.75 31.1751 13.75H38.6551C39.7917 13.75 40.7451 14.135 41.5151 14.905C42.2851 15.675 42.6701 16.61 42.6701 17.71V26.07C42.6701 27.17 42.2851 28.1233 41.5151 28.93C40.7451 29.7 39.7917 30.085 38.6551 30.085H32.3301V34.1C32.3301 34.65 32.5134 35.1267 32.8801 35.53C33.2834 35.8967 33.7784 36.08 34.3651 36.08H41.5151L42.6701 41.25H31.1751ZM32.3301 24.915H35.5201C36.0701 24.915 36.5284 24.7317 36.8951 24.365C37.2984 23.9617 37.5001 23.485 37.5001 22.935V20.9C37.5001 20.35 37.2984 19.8917 36.8951 19.525C36.5284 19.1217 36.0701 18.92 35.5201 18.92H34.3651C33.7784 18.92 33.2834 19.1217 32.8801 19.525C32.5134 19.8917 32.3301 20.35 32.3301 20.9V24.915ZM48.1718 41.25V13.75H59.6668C60.7668 13.75 61.7018 14.1533 62.4718 14.96C63.2785 15.73 63.6818 16.665 63.6818 17.765V23.76L58.5118 22.605V20.955C58.5118 20.405 58.3101 19.9283 57.9068 19.525C57.5401 19.1217 57.0818 18.92 56.5318 18.92H53.3418V41.25H48.1718ZM72.6614 41.25C71.5247 41.25 70.5714 40.865 69.8014 40.095C69.0314 39.325 68.6464 38.3717 68.6464 37.235V17.765C68.6464 16.6283 69.0314 15.675 69.8014 14.905C70.5714 14.135 71.5247 13.75 72.6614 13.75H78.9864V1.21L84.1564 -3.27826e-06V41.25H72.6614ZM75.7964 36.08H78.9864V18.92H75.7964C75.2831 18.92 74.8247 19.1033 74.4214 19.47C74.0181 19.8367 73.8164 20.3133 73.8164 20.9V34.1C73.8164 34.6133 74.0181 35.0717 74.4214 35.475C74.8247 35.8783 75.2831 36.08 75.7964 36.08ZM90.249 6.38V1.21L95.419 -3.27826e-06V5.17L90.249 6.38ZM90.359 41.25V14.96L95.529 13.75V41.25H90.359ZM106.09 41.25C104.99 41.25 104.055 40.865 103.285 40.095C102.515 39.2883 102.13 38.335 102.13 37.235V32.67H107.245V34.1C107.245 34.65 107.446 35.1267 107.85 35.53C108.253 35.8967 108.73 36.08 109.28 36.08H110.435C110.985 36.08 111.443 35.8967 111.81 35.53C112.213 35.1267 112.415 34.65 112.415 34.1V32.065C112.415 31.515 112.213 31.0567 111.81 30.69C111.443 30.2867 110.985 30.085 110.435 30.085H106.09C104.99 30.085 104.055 29.7 103.285 28.93C102.515 28.1233 102.13 27.17 102.13 26.07V17.765C102.13 16.665 102.515 15.73 103.285 14.96C104.055 14.1533 104.99 13.75 106.09 13.75H113.625C114.725 13.75 115.66 14.1533 116.43 14.96C117.2 15.73 117.585 16.665 117.585 17.765V22.33H112.415V20.9C112.415 20.35 112.213 19.8917 111.81 19.525C111.443 19.1217 110.985 18.92 110.435 18.92H109.28C108.73 18.92 108.253 19.1217 107.85 19.525C107.446 19.8917 107.245 20.35 107.245 20.9V22.935C107.245 23.485 107.446 23.9617 107.85 24.365C108.253 24.7317 108.73 24.915 109.28 24.915H113.625C114.725 24.915 115.66 25.3183 116.43 26.125C117.2 26.895 117.585 27.83 117.585 28.93V37.455C117.548 38.4817 117.145 39.38 116.375 40.15C115.605 40.8833 114.688 41.25 113.625 41.25H106.09ZM123.679 41.25V1.21L128.849 0.0549993V13.75H135.394L134.184 18.92H128.849V41.25H123.679ZM143.818 41.25C142.718 41.25 141.764 40.865 140.958 40.095C140.188 39.2883 139.803 38.335 139.803 37.235V17.71C139.803 16.61 140.188 15.675 140.958 14.905C141.764 14.135 142.718 13.75 143.818 13.75H151.298C152.434 13.75 153.388 14.135 154.158 14.905C154.928 15.675 155.313 16.61 155.313 17.71V26.07C155.313 27.17 154.928 28.1233 154.158 28.93C153.388 29.7 152.434 30.085 151.298 30.085H144.973V34.1C144.973 34.65 145.156 35.1267 145.523 35.53C145.926 35.8967 146.421 36.08 147.008 36.08H154.158L155.313 41.25H143.818ZM144.973 24.915H148.163C148.713 24.915 149.171 24.7317 149.538 24.365C149.941 23.9617 150.143 23.485 150.143 22.935V20.9C150.143 20.35 149.941 19.8917 149.538 19.525C149.171 19.1217 148.713 18.92 148.163 18.92H147.008C146.421 18.92 145.926 19.1217 145.523 19.525C145.156 19.8917 144.973 20.35 144.973 20.9V24.915Z" fill="white"/>
</svg>
